<mxfile>
    <diagram id="AYYhZKP_SOMdFnqFS8p0" name="Page-1">
        <mxGraphModel dx="3920" dy="1958" grid="1" gridSize="10" guides="1" tooltips="1" connect="1" arrows="1" fold="1" page="1" pageScale="1" pageWidth="827" pageHeight="1169" math="0" shadow="0">
            <root>
                <mxCell id="-sU8y2Q3AdZbQh8XbGMl-0"/>
                <mxCell id="-sU8y2Q3AdZbQh8XbGMl-1" parent="-sU8y2Q3AdZbQh8XbGMl-0"/>
                <mxCell id="-sU8y2Q3AdZbQh8XbGMl-2" value="" style="rounded=0;whiteSpace=wrap;html=1;dashed=1;labelBackgroundColor=none;sketch=0;fontSize=45;align=center;" parent="-sU8y2Q3AdZbQh8XbGMl-1" vertex="1">
                    <mxGeometry x="-1330" y="42.5" width="2270" height="1337.5" as="geometry"/>
                </mxCell>
                <mxCell id="-sU8y2Q3AdZbQh8XbGMl-5" value="" style="rounded=0;whiteSpace=wrap;html=1;labelPosition=center;verticalLabelPosition=middle;align=center;verticalAlign=top;horizontal=1;direction=south;strokeColor=#666666;fontColor=#333333;fontSize=15;sketch=0;fillColor=none;" parent="-sU8y2Q3AdZbQh8XbGMl-1" vertex="1">
                    <mxGeometry x="-1190" y="160" width="2030" height="1150" as="geometry"/>
                </mxCell>
                <mxCell id="-sU8y2Q3AdZbQh8XbGMl-46" value="Data Lakehouse Infrastructure Environments" style="text;html=1;resizable=0;autosize=1;align=center;verticalAlign=middle;points=[];fillColor=none;strokeColor=none;rounded=0;dashed=1;labelBackgroundColor=none;sketch=0;fontSize=45;" parent="-sU8y2Q3AdZbQh8XbGMl-1" vertex="1">
                    <mxGeometry x="-605" y="60" width="910" height="60" as="geometry"/>
                </mxCell>
                <mxCell id="-sU8y2Q3AdZbQh8XbGMl-49" value="Azure Cloud" style="verticalLabelPosition=bottom;html=1;verticalAlign=top;align=center;strokeColor=none;fillColor=#00BEF2;shape=mxgraph.azure.azure_subscription;rounded=0;dashed=1;labelBackgroundColor=none;sketch=0;fontSize=18;" parent="-sU8y2Q3AdZbQh8XbGMl-1" vertex="1">
                    <mxGeometry x="-1160" y="140" width="50" height="35" as="geometry"/>
                </mxCell>
                <mxCell id="PrAZnpQkdzTBEj-k0U2I-0" value="{ Ingenii }" style="shape=image;verticalLabelPosition=bottom;verticalAlign=top;imageAspect=0;aspect=fixed;image=data:image/png,iVBORw0KGgoAAAANSUhEUgAAAMgAAADICAYAAACtWK6eAAA5q0lEQVR4nOy9B3hbx5n3+0fvIAj2InY1UlTvzZJlucmObVl23GNnnb2OU9bOZpNsNlnflN2bvl++ddZJ7HUcO3G35VjuttxULcnqJEVJ7BQrSPTe7nMGAxAkQPAARCNzfs8DAgRwzgyAec+8885b+ODg4JgUTkA4OGLACQgHRww4AeHgiAEnIBwcMeAEhIMjBpyAcHDEgBMQDo4YcALCwREDTkA4OGLACQgHRww4AeHgiAEnIBwcMeAEhIMjBpyAcHDEgBMQDo4YCDPdgb9TigBcB2A5/Q36AbwM4GymO8bBkUkqAfwBgAeAP8rtG5nuIAdHptgKYGASwQjebADmZbqjHBzp5i4AzimEI3h7ItOd5eBIJ6tYCkbwdixJ7ZZzsxHHTOBsnAJyaZrt/R8A9gnnbKOzGAdHVrElTuHw0wV8onxvinM/DYCXxM836+HMvKnli1GeGwLwPoBDYWZdLwALAMU0B/CXp3j9bgBvAXh+Gm1wcCSNU/TK3Qrg/wOwMsXtsZmhnktxHzg4WMPMELemsT02AnIhjf3h4IiJMs3tXWAhIKY092lGwy3YZhf1AMQA3ACkAPIBzKWm5m0AygD0AKjIdEdnCpyApBYBgDUAFoQZRDwAmgEcpYvzdFJEheWNNLfLwTGORgB/BWCMoeoYALwKYF2mO8sxOdwMklwWAvgpgJ3MP1qtFtu3b0d9wyIUFxWSNwwMDqGp6Sw+eP99jI6OBo97BcAjAJoy2HcOjpTBo5t0ZmZ22HnzLv/u3bv9Xq/XPxnMa3v27PHfccedwRmFUbd+xl20OGYjLzCDPC8/3//6nj2TCsVk/O311/3FJSVBQeE28ThmFY8xA3vZsuX+i21tkwqBxxe4TUZfX79/+/Yrg0LyGgB5pj8YB8d0+TkzoK+++hq/1WodN+AtLr+/z+r1XzR6/S368TfmOeY1s2u8kNjtdnIuKiR/SqA/pQD+jVqpjgM4R72DXwXwALMsSsF3MKvh9N3EuRvA0zW1tWhtbYVQICBPmlzAoN0Hr5/dSQQ8oEjGh1oc+N9sNmPtunVobiLr9V10AT8VFQB+C+BGFu99ikYuWtj18O8bLmlDYuRQaxVeeuklIhweH9Br8aHPxl44GJj3Msd0W3xwegGVSoX333sfBQUFzMu/YXHVvx3A54xwbNy4Ea/v2YOLbW3w+/2h27lz5/C/Tz6JpUuXMe+/l84qV07rG+DgiAFRrR77/R+IamR0+v2t+khVKt7bOb3Xb3IG1K0XX3qZzaL9n5n3rF6zxv/BB3tZGQR2v/aaf86cOcFzfzeN3xnH3wnVjCZ0xfbtZMAZnP5pC8ZEIdHZA6v59Rs2BAfy1ij9+E/mtRtuvNFvsViiGgWcHr8/mqG5o7PTv2Xr1uC5v5qB73DGwK1B4udJAPe9/Mqr2HHDTeg0+1LSSKmcj/f2vIpbdt3M/PssgDvDXt7JrE2WLVuOg4cOQiqRkCdtHsDg9MHiAXxhah6zzlGLecgR8SClDi8WiwVr165FU1OTFcAG6prPMQFOQOJDCaC7uromt+V8G7osPqRGPAI/TJWShyWNDWg912KiFiorNf/2KpXK3KPHjmHB/PmwuoFhhw8OFp5dcmHAKCARAC0tLVi5ciVsNlsfgEUA9Cn6ODMWQaY7MMO4A8Bt999/Pxo2bIMrjsV4Iri8gFLgxTvvvCOhruwnAfwXgM179uzBqjVrMGjzYcjhh4dlX9w+wEg7XlFSgPyCArzxxhsqACIA76X2E808uBkkPl4GcPMrb76H+vXb0tOieRgLK4pBzb1fBmC85tpr8dabb6LP6oPJnfip1SKgQOxFTU0Nent7PQBKAOiS2PsZD2fmjY+FIpEYC1dtSFuDAnUBGhYtBnWZ/z7z4JFHHsGAbXrCwcAcb/YK8ejv/gfUHf+WpHR6FsEJCHuY9Uf96o2XgSeSpq1Rrx9oXEU84hsAfLOquhp1i1fB4ErO+Ycdflx+9fWYP38+OItWJJyAsIeMoMYVq9LfcENj8KHs1ttuh86RvMUPc6Z+mw9XXXsdaBzL/KSdfBbACQh76pg/lTV1aW+YLxizpTSs3oxk2wZ8ABavuyz4701JPv2MhhMQ9uQwf0rnVKa9YZVKHXq8dO2mlLSxeHVoXbUmJQ3MUDgBYY8sFSf1uN346x8fxdO//y0cdlvU96g1ueReJBZDLI1c/wxc6sGjP/sRXnvuzwn3Q5WjwZyqaubhZQmfZBbCZVZkT0r2jL73wJfw5qsvkMefffIhfvfc3yLe4/EEspEuWhaZd87v9+FL112O7s528r/DZsNt/5DYWludwwhiRy7NiOJI6CSzDG4GYQ9xD7dbrUk9aWfbWB63Sz1dUd8z2B/IZy0UiiJeM+n1IeFgOHf2dDK6tSAZJ5kNcALCniLmT2tTUgZgiKtv3BV6fPk1X4j7+BxtHjHTBrn5rnuT0a0vAShOxolmOpyKFZsldPf6eurFi7bz55LawP0PfRerN20Bn8fHouXRTcgDl3pjnuO/nnoeJz47iMKSUlTPTcrF/yEADwL4EMAHtKiPMRknnmlwAhKJgnrOfjmaRefYgU+T3uDiFbENR82nTpB7lzP6skAskWLN5suT1h+xSASX2y1mJjh6+xGAxwG8BOBg0hqaAcxWFWsTgLVxHsOjgnGeFtoko1YmEmDL/AL84Z4V0Cgk6OvtRk/HxdT0Ogo+nw/HPztAHjefPpHStvQjATestx/ehG9tn4t5RaHUwgo6qzAdeR1ATQKnX81okcnsbzqYjQIiB/Aprb/xDyyP2UaTtv2FupUjXynGN6+Yh73/vAn/c8cSbKrNRXVeINHIR++kL3Pnp++9CbMpoN24Xa5JZ5HpYrNYiPArZBKUKPi4f2MlXntwLZ77ympcs2jccoRRN88A+B2APJanZy48n9G6KOUp+QApYjYKiI0KCKju/JUY711Gr4of0KyIaCjX4IkvrcSn/7IZD2yqQI5UAIPNhY5hM2oLAlshBz76IB2fg/DWqy+O+//o/k9S0s5n+z8i93ML5DjTM4o+vQ1OjxdLytX49S2LyPdx/+YaqKTEkiana5RLAL49hQn8TnrhAb1oTbfEXFqZDQJyD00GvTrsuW1huvIfJ6m89BBNjbOe+SdPKcEf71mBl76yEutrNPD6/Lg0asXRDh1a+gwYMNqxolJDDvz0/bfRN4lJNpkwbex56VnyeF6Ritwf/Dg1wrn/g3fJfYVGDIvTg64RC453juB0zyiMNheZUb+1rQYfPLwBO5aEJgEJgF/SAkHRfLjuChOO03Q9E/SUWUxn7aSY3VLFbBCQe+nV/0MAv6Zetx4AV9GZAVRIgjNJDk2E8F8gewsC3LuxGm99cz021ubC7vKgfciMzzt16B61EkEJUqgQoio/oJc/97+PpfyDPfl/f0Xuy3KkWFEamL3e3v1SStra/2EgVips3UGwOj1o7jPgbK+eXCTkYgF+uXMBnrxvFZZUhBKu1FIV6p6wQ5mZ4xn6+BNar9FCPRJ+Qi9g9RNCibOO2RBReIjWvVhCM6UzX3g71ZNfoWrUfKo759KYcmJP3bawCL++pRFfWFwEp9uDTp0FHToLGRT+STwCZQLg8x4TzjefxfYdNyI3Lz8lH+pSdyd+9M9fg8vlxOYaDWq1EhzptcBkNGLD1u0oKZ+TtLbeee0lvPjU42SWuL4hH2JR5LBweXxE1Rwy2eEHD/OLlNi1vARqmRjHuw1we/1S6ui4HEABtXqBCsf11Ex8FV3k30TrmDCLuW9lc5DWbBCQEQAv0qvTFVQIbqfetx/QvLmrqeVlbdCn6t6NNfiPGxaQNUaHzkyEw+6eOqhbJeLjos6BQYMFRw9+itu+/AB4vOQHZj7y0APEaqWRCXFjQz4kQh70di8GzC4M9vXiC19MTlVnu9WKB2+/ARazCRurNagvVUEomFyxYCZUo92FQZMdUpEA62rysL2hGKcvWTBkIgYE5mJ0DX07o8LuoA7DPwfwaNjC/gc0/iRrhQOzRECCHKLCwMwklVTH3Ul1X+bqtpF5E6Mi/PC6enxlYwX5kc8PGGF2sK+8zAgD3+fBqT4rRoaHIBAIsGrD5qR+kNeffwa///V/ksc3NOSjUBnYripRi/FZtxndHW1YumoNKpLgev/yM0/gzVdegIDPx/ULc1GiVbASeEZQRixOOFwelGtluGFJMTpGHWgfHpew8WYAzMLtXSooDEfo49ToiklmNgkI6GzyJwCjdLYooylCiXDUFSrx7D+uxdIyJVoHjESn9sUZXCEQ8CHh+UNX88/2fYy5C+pRt6AhKR/gjRf/iu888CXyeE2lBusqAmsC5qou5vNIBpM+owN733wdV33hZmi0bC2tkXRcbMU37r4FXo8HaytzsLRMBZVCEtc5bC4vBgx2iIV87FpRBq1aiSPtOngCX+w9NCdwHq2N+O8A7gMwmHCn08xMFZBdNE2NnCYaUNLaHMEsPEdo1vXbqMqF5RUaPH3fCrg9bpzrN8DhTjxhj88HlCqFOK9zwOry4p2/vQylUomlq9dP60PtefEv+M7/ExAOrUKMWxvzIOAHruYatRR2pweVuRIc6THD4XTi4Efv47pdt0Mqiz8R/EBvN/7hpqsxqhsms+quRXnIVUoglSTmXGG0u2Gyu4mhY9O8Irxxuo8RkuD4+oBepMJNcELqvsOovnPoBa2crh+zhpmY1WQFzS0bCw9dkxC77Lq5hXj8zsVoHzJh2Dz9jTa3x4sBnQUOjw//c3gQJnsgQPz6XbfjZ7//87gIQDb4vF78+NtfxwtP/ZH8LxQI8MC6EuTLAudhhKS0UA2dwQq7w4NT/TbsPjtMXqtfvBRPv/kxFEoV6/a62i7gS9dfjsH+PvD5fNy/qgilajEKtQpIxNPzPhLweJhXkoNhiwc7HzsMr49ciNwA2ui6cKoGGPW4e1qdSCIzdQa5ilZwnUzA+XTdga0LCshGV+ewiejMyYDR150uL3h+P+bmy9A05IDb6yOWrQ/feh3avDzUzF/ISpc/8OF7eOjeW/HJe2+R/1USIe5bWUxMykFU8sCVnWnXanejWCWCyy9Aj8GO4cEBsrNft6AeZRVVU7b3/p7d+MbdN0M3FNByrlmgxYICGfg8HpmlpmtwYBSrUYsDJTkSXLW4DB+36mBzeQT094q1reCl68hHwzSBjDMTZ5CJlFBXdAHVdb8NYDvzwooKDX57WyN6RixEV46F1e3HsMlOHheqpZCLYm8RMYvT4dFAbMio3YvXW/ToHBmLFSmrqMT263di9cYtqK6bh/LKajJ8ers60XHxPI7s/xifvPsmeRykNEeGWxrzkCsbu27x+TwU5yuJcDD068zweALj5+MuKz4+P2YE2rD1Cly36w6s27INRaVjHh09ne147/VXsPfNv+HEkUOh5y+fl4fNlYE1To5KCnWM9Qcz8PuMTjJ7ysQiFKkiY1MmUqqRY9DswgN/PRmu0v47VYF1VCgG6JokxWn4EmM2CEg4C6j6pSjSKPCHOxthtTvhiGG+dXqBF48P4ODFEWxbkI/N8/JRqGA3sY4YbbDZx5JTfdJpwUcXRhLq+LpqLbZWKyEWjP9JtDkyKGTi0P82hxsjhrHQ3M96rXi7JdJSKhSKkJefj8GB/ojXmDZuWFSAhsLA5iMzaZTkq4gBIhZ+P3C8x4R3m4cxanPjrjVzsLRMEfOYApUUR3us+MmeUH3Sd8LMwFnPTFWxolFMneGKpSI+fn/HYni9HtinmDmeOtSL/Rd0ZBF/z5pSKMTsnQukYiFsdldoU7FKIya+TA4vYHZ6g5acSWEG5LwCOW5uLMCyElloQR46v0QIjWp8KLxIKCBC6aONlqvFqMiVQe/wwBhmrvb5fLBaImvk1OTJcfuyIlRqxoQuVy1jtThnBKk0RwKtUoKPzulwrMuI1dUaKCWTDyOby4PGUhV8PAHO9BKnyzq6Rtw3ZYNZwGyaQV6mdnf839uXIk/GizlzMAxb3PjPdy7ihqUleOZQN9bWFeKeVYWQCNkLidPlwdBoZBiuxw9c0NnJ3sCw1UNUMlChIi4rWinm5ssh5EUXIkZYisJUq3Bcbi+GRi0Ru/06mxcn+yzoNjjg9oyp8VKxANVaKZaUKJAzYTDLpCLka9hbwTr1Lvzi3QuYV6jA0goNdGYndi0rmvK4slw5fvNRN9470xd86nq6k57VzBYBuZkKCK5fUoY7VxURd5Gp6ByxoUfvxKa6XLx8cghvnxnA8spcfG1zfG4cZqsThiRYx8IpylNGdfkIYrW7MGq0T6sNZn3DqFZ8Prth0Gtw4mfvtqFEI8X3r6ohg+e1U4O4ccnUAsKQq5Thrv89FlwPDlMTb1aXgpsNKpYawG4AGo1CgkeurYPZwS5prUAoQF2+nKgOC4sV6Bq142SPEaM2D5bOUbO+ekjEQmIFCs4S04EZrIXa2MIBEvUnICZaB4sLQTSYGaowVwEhy9myddCKX73fBplYgIe3VpK9E4YyrQISAbtvyuX2YHlVPva2DIEGYYE6mWYts0FAGOFYxaw7fnvrYjjc7DM6Mz9s0KrJ3K2u0qDf4sHhthGyCdhQooJ0CmtW6FxiIVGfHDEcHaeCGfQFWgVZZ7BqUyQg73U448tizfSzgAgHu3aO9Vjx2MftEImE+KfLa8g6JNQHlsIBaqbSygXwgo/WATOoc+nhbNscDGemC8jNtOwxdq4oR11+fG4SE2GEZUm5Gq1DVpwfMONUjwlravIiLEuTIRTwIZeK4PX7x60B2LSrUUnJYjnamiMWjIDIpWJ4vD5yi9kOaDs5MtZq1ec9ZjyxvwvM27+zvQaV2ukl7vb6/FhcnoPPOozMTM+n8TiP04V71jGTBYRHHd4K8lUS/OPGCvCSYEpnZGFhkQLNgzb0Gx043WchMRJqKbuvihl4jJDIJCJyzWQGxGQzikjIJyZcbY6cvJ/H48Hu9qHX4EDLgBXtw1Z0jdjJbcQeEAC1VIiJe3lMm8x5mJmBOQfzOg+Be6FAQJ5nXs/TyFm7knj9wIfn9fiwxw+LyYSHtlWjtiB+l5ao5/b5UJgjw+H2UdAqvnq6SZh1zOSsJl+jATf4QmMh+EncfM1TikmMyGOfdECeV4Yfv3Eet6wsxfb57OvwM+oSM/BBXVO85AofkBRGMBjdPzhbGBxeHDqnI8J4fsAU87zMjLG4TI3lFWqsmKOGKGx2Y9S86bqKMBgdXjxzpA9Vy7fg6V8+hF3XXYX5RbH3O+KlsUSGBcVKnBsga/R/o8FVQ0ltJAnM5IjCf2f+lGjk2FCbm/STX9IHNuN27rwJv/zVr/H8kV68eiqx348Z1FKJCEq5mNyYQRzaGTc68aM3LuDl431TCgeosH3epcfj+7rwmw+7pjRlx4vR6cNv9nZg8ZYv4NVXX4VCoSD+a/F6PU8FM6te2xhKBpFLPSCyjpkqIN+mUWtkcy8VjNgCA89gMODhhx/Ck08+ifdaRvGrvZ0YtiSneg2jTv3ivfaQsyODWq3G008/A51uBH6/P3S7cOEiHnzwwXHHMwL11Gd9SekLw2edJvzrq824+e6v4KmnniLPWWmq1e7R6ZmUo9FQLCdrPsp9YZatrGEmqliltEY4VlVpMa8wOXrxRNp04zOt33fffaiursZNN+3Ev7/eirvWVmBDTc602jjQboBpgknaZDJhz57XSahtY2MjCciyWCw4duwYDhyMzNl2tEOPL6+vgJif+CWeEdQnD11Cl4WPV157HTt27Ai9NjQU8Bq2uFLjP3jnmnI095+D2+vLB/A9AD9MSUMJMhMF5B5akRVXLGC/JogHj5+HAerv5PWOqTBbtmzBqVMncd111+HJA2dwtEuDr2woj8s9JRw+L/pxL730ErmxP09CzRNOXrLgz4d6oc4rxIEDHwRLsYUYHQ34lg2anFhUkvwLfJ5ciE1ztfjwHPEnuy/bBGSmqVgymq4HFXkK1CXJqjKRPsPYrvjIyOi41yoqKvDuu+/i2muvxZleA3645zwOdU69dojG6io11NKpvWJjsaIqd1J3lViYnD789Wgf/vvDdmy98lrs378/QjjC6TOmrhrC+trQha4MwDdT1lACzDQBuTWYZX3nspKUNdJnHIsb6euP1PFLSkrwt7/9DY899hjcEOKJfZ34z3faceJSfF4TSjEfD22rIn5KibC6Wot718aXqNDh8WH3qSH86+4WHO624dlnn8Vrr+1GZWX0yll2e2Dt0WdITixNNKq1UiyrDAnJI3FkbEw5M03Fupv5o5SK0FiSmtkDxIlxbNHs9UTfvxIKhXjggQewdt06XH3VVWgbHMSjH1qwqlqLm5YUsYqXYKjUyvDIjjrsbzPgQNso2oZiC5lIKEBjmRpXzM/D/KL4voNj3Sa8dLyfOBjOnTuXqHFLliyJeczAwAC511mnWXN6Ci6r0+BEV2hfZBvNVJNxZpKALKNfHK5rZOcclyijFvbqxNIlS3Dq1Ck8/PDDePHFF3G0YxSfd+qxtkaLqxoKUJ4jnvIcAl5ggDA3m9tPTL/9Rgda+k043GHAjkUFKMtVoEglRIVWHteaw+nxoXnAhtdODqBXb4NMJsMPf/hD/OAHP4BYPHXfRkcDKibznTBrs0TUOTYsLFZCIREGnUwf5AQkfkhdMY1cjG1xbNglgtMb36q3qKiIqCpf/epXibWrra0NB9tGyG1esQqb5+aTwCIZC78uuYiH2nwpuXm9XiIgyytyUJUX32wxYHZj7zkdOd5GfbVuuukm/PznPyezRyJ06Kwk3iUVCPnA5QvysecUmbEuo9ka21LSWDz9ykB7xfTeQG9syA1mal9UnjMtqw0bBsIi9hwO9rPJpk2bcPZsE/7jP36Kn/70p+S58wNmcgNdUK+r0WJxqQJx+PixRm/3Yl+bAZ+cH4bBOqYmMmumV199FWvXxlsRYryRYtDiw9yCpHU3gpUVOUEBAc1p9svUtcaOVAmImqpDl9MsJCoaDhutvU6az6oZwHs0JHNiDOmtQYPChhpNiro8xoh9zObf0xu7utNEpFIJfvKTn+COO+7At7/9L3jrrTdDrzGqF3OTiAQoVokxRytHcY4U+UoJ8hTCCHeZETrI+6NYkBw+AYaNNhKM1T1qw6jVHdr9n8j3v//9hIQD5PP3jPXHZKUZllJDuUaCygIVuobJBeW22SggXwJwA4Ar49gVraK3FXQRbqfJpX8EIJhC/VrQ+OZ5BSmpxhyC0bMt9jGLjcmYWOWxhQsX4oknHkdpaeROv9PtJbEnXSx3p584EJ+QTqS5uTnhY8ONFMx3k2qurc/DY58QAVnOTCosUjyllGQICJ+WF3g46DwImhqH0ZtrC+UoVooglYhRwFwlwxZ5VrcfOpOD7NKeG7Dg3KAFPp9fRjeMmFnjGwBeo2l+iINeqhk0RZozbTYb5PL4de9z55JbzzBRmpqaEj42XMXq0ae+MvSKCjVy5WLobWT2vG+mC4iS+vLfFnyiQCXButo8bJ2nhVrCYpulODDR7FhUAJPTi7fPDmFv6wi8Xp+CZmJfTetQoL4kddN7kGgJrDs6OtHQUB/3uVpbW5PUq+nR09OT8LG9YSqWdYoEGMmAmaOqC+TQdxEBuRnA1zOZEmg6ApJPywuQzM0auRg7lxZhXU1uxCLa5/NHDeYRCHjjAoTUEgG+uKIEy8rV+K+97XAF3MMfYP4opCJiCkw1w+ZIR8Th4aHwyZE158+fT1KvpkdHR0fCx3rCVKxLhtTPIKD5zI53EftNEa03mfzKqSxJVEAYxXovs/Dm8XjYNDcPt60oJtlAfH4/HE4vyfbhdHvgdvtCKWomQywKBPVIxEKIxQLMK1Lg5uWleO7oWLWutVWalFh+JuJwR24MBj1a46V9GgMz2SSqJobjdLmJ23uqrYhLypQkJZI3cFHdkUkBSdTV5L+pVQrXNxbgS2tKIeLzYDDZ0TdkwrDeCpPVSdJzTiUcoGlsmPczx/UPmWF3uomFJ5y5henxhI6mZre0JLaW6OnOmhSzaGlpifsYgyHSQKF3pF7bkYn4KB+Le4+91Z9iEhGQLdRGjWVz1Li+sQgGsx39w2aYba6EExYEYQRKp7fhwPnh0HMioYBkGUkHZlukZcliMSd0rmxZgzAMDMZfcaCp6WzEc9G+n1RQVRBSpzdmMjQ8EQH5GfMnRybCHStLSa5Ys9XFaqZgi87mweGuMQ9ZZu3BMrnItPFFMWUODCRWziJR1SwVdHfFX3TUFkUYon0/qaCxdFyN9i1paTQK8Q67mmCB/Svna2G12MkCPNkc6DQF0+YTkpUsgA1WT+QAOHcufvXEmOD+Saro7IxfQKIZGaze9Fyp6grGqdSJ7XImgXg/7e0g/kICLMhPzYbdqD2QPjOcItXUTnXJwmiJvGrG424SpK0t425E4xgZib8UYMB6Nx6jOfpufbJRSfgoHQsDWJOWRqMQr4CQsgKNJUoIUuTVua/TTGKww6kpSF+ocvjMFeTs2UhdfCoS0flTSUdHZ/zHdEYeE+37SRVLykLrztq0NTqBeAVkJfOnmGWsQ7wws8eJ3pBqQnalFFIRCcvMJMxawhfnwOidxuZcKjAa2fqFjtEVRUDSSb4ypDnUB8Os0028AkIu5cGqq8lmX0dIOEaZCxjzIF4371QR72abyZRYGG6qGByKP2WRTpdYrZNksWD8xnBySwmzJKEVVyrsGMM2D05cCplT/0INAqjMS61zIlsMhviuwBcvXkxZXxIhkRktmpk3nRSrhFBKQ7PIpkz0ISEBMacg+nJCPPfeYN+KlelboCcTzyShujMFvV6f6S4Qwgw0GbFkxSsgZOdrIIrH63S5MBKyFH1G69YRSliErKaD9vb4VKzpOAhmA+3t2ZFwPez3b8xE+2wFpIF61ZJVW+twcp3Wes1uDJtDQvcMbY8QSAKdeaKZPGMxMpJZ/T0ag4PsP0O8RolUUT5m6k1NCs0piCUg6wH8iUb7naVXdhKX0WcMlBZLFueHxtnWX6a1sgnFyuwQkHj3NcITzmULXV3srVK9vZdS2he2TMgYWZzu9qMJyHJa9ecAgHtpGpYI9rYZk5bQuH1MvXqXlgQmV4sijSIi1X+miHdGGB6Of2Mu1dhs7Df5BqJUx80E2vFFTONLApYEwu21EgD/Jxh/waAQC0ixxqpcCfLlQlJ/w+gE+k1OsmbYe9GA7XOnFyPOyNjAWB6q9+k9Cb7Ik2dPXruWOKMDL12aXphspknE+zcVaKTjxsDCdEcYhgvIiwC+wDwQCfjYsTAPS6MkZ2Mu7QsLJLi8Vk1S5ds8wHT28br0zvBgqr30nuy3VOSlPkBqIjKphIbFj0c3PJz2viQbk4m9V/JkngBy2fQqTMVLcc64GSTtA0JItzX+NygczKLohvpcFLAY9TlsQmqnoN8SMocyo/IkfUz2QMS89C8UNbLon7u9vZ2sKwSCmVuUK569nIsXLkR9Podlpa1kIRq/BqlOa+N0DfJjGhxPCr7/w8oCVsKRDAwOHzr0IetVZ5g7AXHCKc9PTwxIOGL+5ELZ2souhDYeXT+dmM3sZ5DJYllifT+polAT8sWbXr2JBGAk4VvMgzyFGDfW5yWlzt9UePw8vN2qx+c941zCGf3SHF5cXiFIvyUoRzH5zr3dzm7gx6PKpBO2purRUf2kQh7r+0kVsjGhTH4psSlgZhCy0LhuYV7KPHTDYVrYfVaHMwNWlGvlUMnH6bQSmsmCIBCkf5GulU5uNutlmUTO6UxdJvR0cP589NmDz+MhN8b3kyrCEntkxoq1qESJ6tz07Fh3mzxYW6vFQ1doQsH/NrcP5wetaBm0oqnXSKxkDEW5qqBTb9oozZ38Csk2hNbhSE9YaqpomiTRXFUaww7CyVXLAR2Jzky7WwURzSvq0jdz1ZeosL5GMy4zhlzEx9JyFW5fUYxtCwtDzyszoGLNiSEg2ZIILtVYJlmr1BWk36rIkDtW/n5ZumcRfmmOdKKtOaXw/LEH/RtnAm5Yq2vyUp5eJhoSAVCqie5iP50MhTOJyQLE8jPkOLquNlRPhx9MYp4uhGVj6VXSgtszuRXkk4sGGGwBV+FrG/LT2KvxVOVJ0WeIXKSy3SwUCNhbARUSCS6vqUG+TAq3348P29rRFyOWZENNNeZpApuzZ0ZGcKyLfWqhnBx2RqCzZ6NfCJaWZWYGqcoVo740B819xKjzdQC/oQadlCMsVKTXru1ye0iiB/6E6cHp8WPP6cDsMb9YhTma9ApuOAuKVTjYNhrxvNlkIuWY586ti3m8TMbO0vPwxg14eMN65ErGPqvb58NzZ87ie+++C7NjbLG/rmIOfnv9dViYN7462ZFLfXhgzx5cGJp6IzM3l11dlTNnzkQ8V1ekIhnoM8U9a8vwvVeJgDBXzn8E8Ot0tJt2LcbvByy2SCvP0W4T9DTd/9b5mZs9GJj1kEgY/cLBxoVEpVJN+Z5/23IZfnz51nHCAbIxxsc9SxbjF2GlmEtycvDcbV+MEA6G1WWleGHXLuSyyJrIpl9nzpyF1RpZBm5FRerLTsSiQCHEwtLQDPg9WlIj5WTE2clsc0WkCzrSGdjlzZGJsHxOWj77pCjEfKyrjj4gjh2b2hVIrY7d//qiQnx388aY77mroR4NxYFSc19dvQp50sldPObm5+HZ226dsl8azdQq1uHDh6I+v6w88zX+r6wPVe9hrqC70tFmRgSEEY5R45gptMfgRNOlwKbhpnkFacnBOxU3LCkiuYYnsnfv3mmf+ydXXgkei8Dlf1y1CjkyGe5fsXzK924sL8d1U2SgZ+Mm09wc6aS4rkaLgiyI7FxcIg/3zXogHW1mzF3W7nTDag+oVB+2jrmSb6lLuzdBVDQyIa5pjAw/+Oijj6d13tr8fFxZXcXqvTctXIhdjYugYlFsk+HLy5ZOq28M+/bti3juusWpLZoaDysqQrPzanpLKXxfSlIwjHHJPHlsNjOLmGwunKIuJxvr8pArz44AKYYr5muhVYwfnE6ng1WeLG2U9QLDNTGK9U8kVyohC3m2bKuuhjDGLFFXF9u4MDqqx+efj1chr15UlLI0T/Hi9/vRWCCFcMzD4u5Ut8kftiQ/A8Oo3YvXW/T4zb4+PH44dmTaW2eGYbQH+rBtQQorRCaATMTH17ZWRyzY9+/fP+WxJcUlUZ+/f+XU6lI4lUr2plU+j4ettTWT96kkep+CfPrpJ+P+X1SmJjXfswWD2QGpgIdFRaH10F2pdoHnD0QpGJMoZqcXL50ZwaMH+3C81wSTY2rhO9AZmD3qChQoVmafK3lVrgT/cmXtuPXIiRMnpjxOKo00U1dqc1HLci8iUTZUVEz62lRrkHD1qq5Ija9vqUaUZVhGcLm9sATKsuGy2pABRUNNvimD3292JaU449FeC353qB9NAxbWAf/dRhdsroAKVl8og95kT2qW+GRRmyfFV7fUQCoKDDA2KpZMFml2XTrFFTwZLJtGG4cOBSxYtQUKfH1L5cRYjIzh9fkwErZxmyvlo1obWqx/JZVt8z1eHxnUidJtdOOxwwN4s2UEjkB9PyeA39OEDzE52h3YDBUL+agvlJOrhMGUnY5+jSVy/GDHPMwrUuHgwYNTxqjX1ETG9lSwMLNOl9VzorsqFRTEVl9NJhPOnjpJKnt958paqMRZYEqk6E2OiBJ+9cUhNWtBKssjkAn07GBiAT4tww48eaQPg2Mpe07QlD1fDSvhHBWvn4eW4UC7c/NlkAoDP4jV7obDmZ1J10pUInz3ymrcvb4S+6NYe8KRRtm3qNOk3ilUKRSiJoowlJfH9vFrOXkE372igrj4ZItaBTIeXLBHUdUbi8bN0Lenqn3yVbSPOGCJo4Kpxwe8e9GMF06Oi1t+hJrdgvlxYian7dTbQ1eFJROq144YbVmTlykaW2pzUKCPdMcIp6ysLOK5huL0ZK0pjbKrPpX7i6N5L0rS7Jc3FW6Pl6jd0WAuqPMLQ5/zllT1gTjXMDre/k4zrp43tTuB3QM8fXwI/WMbfccBfBHAxGS0Mcsrne4PzB5iAZ8shMPx+fwYGrWhKE8BXrbk/ZlA94mPsf6+H076enEUYXiptRVNAwMQCgWYk5cHDT85RgkH/NC73BgYGYHD78elKJWt5s6dG+MMfvQ1fZaUviQLj8eHoVFrzJJ+jFreGsipxkzNlwH4JNn9ENIKoptP91txxVwNhDHGo9Pjw5+ODmHIElKp3qLCEdcihpkbWgYDP+LSMiXEUbbOmavHiMGOPI08a3JjhWMz6NBz6lPMWRI96Xh5UR6UMgks9jG/sz/sP5DGHob1RatAY+Xka5CL+/fAbsyeTJB+vx86g3XK6mXzx1ceuzFVAvIEIyA2lweftBmxbZKdbEY4njkxHC4cf6Kux1MuYDx+HoRh4bwXR5xwUfVqVfnkiRnsTjcpEJqrzo4M7xM588afJhWQlQ1z8dtd88me0KjVjQGTA16PFx7wMWrzwEY9df3gweNPTOnnwQ9hWOaX/BxlKMhMKZegUClCWY6EeKQuro+eudPrduHE7t8n1H6qGDXaY4ZFBGHUrIZiZdDIdCuAh5PdFyHNhbuDmQn2dRhQliPGgoLxA3LU7sFfjw9ixBZaPH8NwP9Mce5QusQRmxtFYa7Sp2iZA7VUiIIp3O0tNhdxjc9RpjcfExsGWo9jtLsV2orI3XE+jQnRygTkVpef2f67JwkDbv/sXZiHsyPNqM/vx6jBBnscRprFxfKggJTShIPR44UTJHjpYgY8SXnx/MmhcVYtZuaYIBz/LwvhQPiaxBV2NXB5/WimuXgXFrHzEDVZnDBbszMRwtm3n850F1jhtETmxPI47Ti5+7GM9CcaBpMjLuFgmFsgJ4kOKUmPNgyemVFAbwsurF8+PYxnTujwevMIfnd4IFw4mLn4RyzPHYo40lnHzHTtemeoBmGtlr3VxGB2ZKWQXDzwBkyDkVF9Fl1fRvozGf0tRyOea3rnmayZPZjfN+i8Gg98+FGjDc3OU/v8x33+MT4CcAUA8su26aw4fskCU8BPilFsf0L3N9gSik/VO8ZMyO26wFQvFPBQF2elXOZLNFqSW3ohGez97cNw28dbjnpOJH29OC3splEcefZXgN8Hj9OBo8//Bp+/8rtMd4vArDmmc/EL00TKaVWCpDExhvIwgDK6fX8vDUw5Q9WqROpxHQGwWm8fE5A+Wp6qQC5KyNeeUbc8Xh/ycrKjdiGDvvci3vyP+3DVdx6DTJ0HXUczLuzfk+luRXD2nWfQsvcF+Dwe+P2Z32diNIkRoz3qRmA81IzXRBYDODjdvgWZLMj4cXqbLscYAblkDFz1XT6gj+a8qslPfIDb7G74fFZiAuZniQ2YWazv/tebocgrhrGvg6bIyz687uQ5p04HZkGu09vgdE3fa0ItERA/OerqtIEuBZJCqp0KPmT+jFpdMDl96Bi1h3bIqzTTi1BzOD0YGrGS/ZJswWHWY6SzBR5X9qmB2YTb7cWgzpIU4QgSttm8LWknTYOAvBV80G1womcsUTUqcqdv9mSEY3DEEnKD5sh+TFYnBkYsEc6H0yUsC05JsDpAMki1gNiDhT/PDdtgdgW+lIpcGSRJCjz3+0H8dZgFPEf2wqw3mN/JmKLfqXL8BTdpobjpSHTErFbntwzaoKT1RFRJqCsyEbPVSaZsbY5s0pQ9HJnB5fZi1GhjtTueKCXqcQv1pIVBpsOx+SlQh0ijPaBzVoVJu8PjR8uQHZ/1WtFrmp41g/khBnQWIiz+LAy8+nuDWYgbLQ6iBidLOFxeP073W8l4uRQ2XgTwQyEJXe+nn72Cko4ZpAlAb3jSYUbanR4f9ndZcKjLBE9YRdhdS4qwqHB665PgplOeRs7NJhmCuVjp9FZ4k1XplfJKkx6tg2NZR0s0cmypVmN+vgQlajEuDpOL8KJktZfO0XNV8IGPx8ObLaNoG7GFQmzLNFJcNT8P1RoRcYGfLj6fnwgJc3aJSJC1bvOzDeZ7N1qc0BvtSauCHE6hQgixSAid1QWPzw+Lw42zAxY0DztIrjGjgwgIc4X9RTLaS9eoUQG4MFE3FPJ5WFKmwvJSBcrUqUtMxufzoFZIoFJkV0DQbIJRaRnVNlrWzFTg9PrROmzH4W4T+oxRd+GXhdW8TJh0CMhOAD8DEIrYYa7mq+aosalKBZUkfZOYWCSARiWFRJy5JMyzEQcJS3BmbE/q4qgTH7UZcckQ4bH8PM3jGzP8OxapEhA+zVn0IIA1wSdlIgFWlKuwao4qKRVyE0UmFUElF3OCMk0cLg/MFie5zwbODdtxos+K1qFxfnFOWsX5jwBOxXvOZAuIlM4Y/xq+UMqRCrG2SoNlJfJQcoZsQCYRksAiiZhbo7CFUaXsTg9Rp1zu7PFiCGfA4sHBLjOaB8xknRLG09SvsIPtuZI5KhoAvEDvQ2yp0+KyalXaFjuJIBLyoVHJIJVwM0osrHZXyFl0JmBw+LC7aQRdo+OCXt20tsiPwoP6JiMZ47aSusKH8qQyi+/VFTnYXK3OqhljKgR8HpRyMRRycXhl1b9rvF4fceVhFt8zdW+px+TGBxcN6BoZJygDAL4B4OVYx05n9MoAfJ+qU2SlzQgGs8bYVJ0DpXhmDzCJSAC5TAS5VBxRDWu24/X5iMc0M2Okcvc73XQb3djTMoJh8zirVyvNrfBBtGMS/eU3APgLgFAe/9IcCXYtLoQ2jQVB0wGzNJGIhFRYRLN2rcLMDla7m8RmZMuiOxV4/Twc6zXjgwujcHvHzYi/oBavcU8m8mv/kJ6IBHSopUJcVqPBslJFRqrSphNmJpGKhWTNIpOKZvwuPbPItjvdxP2cEYoZqkElhN7uwXsXDKH0U5TPAfwTgFB+pniGdAmAJwFcHXxixZwcXDk3J2meuTMNRmAkYiGkYgGpyyEWCbJWHWPUJkYgPB4fcep0ur1p2dDLdi6MOvH+eT2GxtQuO50ESJFQtr9mA4B9NIMdlGIBblxchLrc7Ciskk0wswszy4hFQggEPCI06VbLfH4/mRU83oBQMAIxm9YSycbtA7F2NY9P4v5nAPez+eXq6ZRD8pKW5kjxxcV5ZG8jE9g9gGyGWWOFAj4RFmaWEQp44PMD/wv4fLLGEQj4rEOHmat+0MzKzAper59Ymrw+P9nJZl6bqTOD0+uHkPlueJnp/+f9DrzdPBS+d/LeVL/KCgB7AZB0i0vLVLhugTZj2b8dHj8ePzKAb6xPfZ0NjvSzr9NM3Nm31U6ebTPVjNq9+POxfhhpJp5YQ72Emr6IcKyrycON9ZkTDoZjvWaMWF3glIXZid7mwr52PYzOzO3Qa2UCfGVtGVSygPNsrOH+y6BatbJchatqU1oKbkrMLh8Od5uhkQozV5qXI6Xk01LTBzrNGe2HUsTD/auKkCMVTDrWlgK4k3kwJ1eGHQu16e3hBLx+4OXTQ7A4PVjAMl0px8yjvjCQSPBItxEdhswm4siR8HH3ytJJBSRUsefKuZqM+1Ht6zShi2ZEWTtWJ5tjlsFoB4toMaU9TTrY3ZlVpvNl/EkFhBTnLlRJMCcndYFMbGjXO7GvPZB4eVGxAhrpzN6c44gNc0EWC/gYtbnx/KlhYpjJJJMJCAkKV2d4MDYN2vDc8UFiwpSKBLhibupr/HFkFrVEgM21gd+5S+/AX08MwZ5BIZlMAtYCWMZMcavmqIgTYjphvo4P2014+9wIiWtm2r9jWSGKVdzG5N8DFRoxug0u4g5icnhIuYy5+TLIRek3z0wmIMwK6U6Pzw+HB5iXxuIvLq8fL58dxfGesRqg1y7IQ31R9iSr5kg9CwplaNU5YXN54XD7cKTHDK1CjCJl+i6SzBJoMgG5CGA7I8yDFjfkYkFKkyqAzhpNg3a8ckaHbv1YbPG2eXlYV5FZEzNH+mG0hvmFMlwyusgswtAyZIPO7kWpWpryOCOnx4fnTg7HNFBVA3g3mGyhNl+Oy+tyUaZKrp+Hz8/DyX4rjvaY0G8a89NXSYS4YVEB6rSZNRJwZBan1489zSM4OzDmdcvj8bCoWIn1VWqUKJM7Hr1+4PNLFnzcZoTN5ZnSgssIySs0hQqhsVSN1eWKaVu3hm0+HO81EeGwR4k/2FKnxZZqzqTLAQyY3Xj+tA6GKEnKq/LkaCiUYXGpEtPJA2L3+HFmwIajvRYMh+UPZjNPMcr/ozSkNiSuOTIRmVUqc8SkECefz0eBQhzhaObx8zFscZDF9rDVg26jC50jNmLGm0hhUTGGBgdC/yskQiwqkpNyv8VqMeQzKHyXY3oMWT3oN7vRNGjF+bAsJSq1Gm63Gw77+BQ/Aj6fJLCeo5GgVC2GSsyDRCwiAXwTR43Fw4PJ5iCOr30mF6k80D5im5gFsgfAv8Uz4ooA/AutZViW2MeORKlSYcXajbjj/gewYet2fH74AB792Y9x9OC+iPfmysWkrLFGJoRGwoNCKoZawgcvC6olcSQCD16eADqzgyyIB0xO6GweDFpcJF4lnFxtHq78wk587Ts/gEAgwCt/eQpvvvICWpvPJLtT+2iaoD+DbTwIny/AirXrl67asHlD/eJlG10ux41739oj3ffBuzAZI6unToVILMbGrdtx9Q0345qbbgFfEGkruHiuGU8++hu89/puOCYpYcwx+ymvqML9//Rt7LzzXqKlTKS/twd7XnoWb7z8HNovnE+ojdp5C3DjbXdh0bKVbZ1tF/7WdOrEgYMff/BRX0+3PqaA7Lj5i9vuvP/Bby1eserKyRJdG0Z06Lh4HhdbWzDYdwm64aGI9xQUFqGwpBRlFVWYV9+A/MLiuD7Amc+P4Phnh9B85iQuNJ9F+4VWeDyzN27675XikjKUV1VjwaLFWLV+E5atWQ9tfgHr4/1+Pzovnse5s6cxqhtGT2c7HI7xmX0kEgnmVNUgNy8f8+oXoW5B/aQBbXabbTCmgPz893/62Y6dX/wmzWCSVdisFvIFcIIy81EolKioro2qSWSaKVWsgqJizar1mzev37pt07LV6zZX1tQlrXoPB0cWYjh64NNPjx7cd+DogU8PxG0WUqrVgsrqukULFy+dm5uXX1JaPmchAEHt/IX5Eqm0smHJcmZOrEhN3zk4poWjr6f7gn5UZ+nv7TmvH9E5AeiaTp3o6O/tbunt7uzoarvYF35Ayuymc6pqclTqnGqlSiWqqKmrA6AqLZ+jyM3LrwFANlEUKjW/sqa2jNZj5zcsWa5lVNFsVOk4sgbD0EB/9/BgvxuA02ax9HS2XTCGv95+vrXDbrf5HHZbd/v51mEAlvYL5y447Pa4zZ1Zu7GQk6sVzFvYMIealIViiRRLVq4upqlOiQBV1tbJCotKSgAUBj2Q5UolI2iFVOi0aSozxxEbZqWss1rMQ82nTpjCnjcAGGg6dWLIZrUwg9cLYHhooP9SV9uFYFih2WqxtDefPhG/uTQJZK2ApJqS8jmSXG2+itEaaYGfca4BAoEA8xctZl5TUIGU0PdOSu38hXKplKSWlFNHUFFQcOnx6fSbsQKh8P3gYLMD8PT19jj1I7pYBSE99L3McQ79iM7W39sTrUoN0wYz4E3tF85ZHXb7zEynwsHBkRic+sHBEQNOQDg4YsAJCAdHDDgB4eCIAScgHBwx4ASEgyMGnIBwcMSAExAOjhhwAsLBEQNOQDg4YsAJCAdHDDgB4eCIAScgHBwx4ASEgyMGnIBwcMSAExAOjhhwAsLBEQNOQDg4YsAJCAdHDDgB4eCIAScgHBwx+P8DAAD//5PYFFrBhVFBAAAAAElFTkSuQmCC;fontSize=16;labelPosition=center;align=center;spacing=-10;" parent="-sU8y2Q3AdZbQh8XbGMl-1" vertex="1">
                    <mxGeometry x="-1290" y="52.5" width="75" height="75" as="geometry"/>
                </mxCell>
                <mxCell id="LqsbPOSO8fhI4KLYFztt-86" style="edgeStyle=orthogonalEdgeStyle;rounded=0;orthogonalLoop=1;jettySize=auto;html=1;dashed=1;dashPattern=1 1;startArrow=none;startFill=0;endArrow=classic;endFill=1;strokeColor=#F99007;strokeWidth=2;fontSize=13;" parent="-sU8y2Q3AdZbQh8XbGMl-1" edge="1">
                    <mxGeometry relative="1" as="geometry">
                        <mxPoint x="-502.1399999999999" y="1395" as="targetPoint"/>
                    </mxGeometry>
                </mxCell>
                <mxCell id="pACtPd74VW9xICia-oxW-24" style="edgeStyle=orthogonalEdgeStyle;rounded=0;orthogonalLoop=1;jettySize=auto;html=1;fontSize=18;strokeWidth=5;" parent="-sU8y2Q3AdZbQh8XbGMl-1" edge="1">
                    <mxGeometry relative="1" as="geometry">
                        <mxPoint x="-650" y="593.25" as="sourcePoint"/>
                        <mxPoint x="-430" y="593.25" as="targetPoint"/>
                    </mxGeometry>
                </mxCell>
                <mxCell id="pACtPd74VW9xICia-oxW-4" value="Development" style="rounded=0;whiteSpace=wrap;html=1;verticalAlign=top;fontSize=18;strokeColor=#6c8ebf;fillColor=none;" parent="-sU8y2Q3AdZbQh8XbGMl-1" vertex="1">
                    <mxGeometry x="-1110" y="260" width="430" height="680" as="geometry"/>
                </mxCell>
                <mxCell id="pACtPd74VW9xICia-oxW-5" value="Testing" style="rounded=0;whiteSpace=wrap;html=1;verticalAlign=top;fontSize=18;strokeColor=#d6b656;fillColor=none;" parent="-sU8y2Q3AdZbQh8XbGMl-1" vertex="1">
                    <mxGeometry x="-410" y="260" width="430" height="680" as="geometry"/>
                </mxCell>
                <mxCell id="pACtPd74VW9xICia-oxW-6" value="Production" style="rounded=0;whiteSpace=wrap;html=1;verticalAlign=top;fontSize=18;strokeColor=#b85450;fillColor=none;" parent="-sU8y2Q3AdZbQh8XbGMl-1" vertex="1">
                    <mxGeometry x="290" y="260" width="430" height="680" as="geometry"/>
                </mxCell>
                <mxCell id="pACtPd74VW9xICia-oxW-7" value="Shared" style="rounded=0;whiteSpace=wrap;html=1;verticalAlign=top;fontSize=18;strokeColor=#82b366;fillColor=none;" parent="-sU8y2Q3AdZbQh8XbGMl-1" vertex="1">
                    <mxGeometry x="-1110" y="969" width="1830" height="265" as="geometry"/>
                </mxCell>
                <mxCell id="LqsbPOSO8fhI4KLYFztt-74" value="&lt;b&gt;Azure Data Factory&lt;/b&gt;" style="whiteSpace=wrap;html=1;shadow=0;labelBackgroundColor=none;sketch=0;fontSize=13;verticalAlign=middle;fillStyle=zigzag;fillColor=#5FC0C5;opacity=30;" parent="-sU8y2Q3AdZbQh8XbGMl-1" vertex="1">
                    <mxGeometry x="-1000" y="448" width="210" height="60" as="geometry"/>
                </mxCell>
                <mxCell id="LqsbPOSO8fhI4KLYFztt-0" value="&lt;b&gt;Databricks&lt;/b&gt;" style="whiteSpace=wrap;html=1;shadow=0;labelBackgroundColor=none;sketch=0;fontSize=13;verticalAlign=middle;opacity=30;fillColor=#5fc0c5;" parent="-sU8y2Q3AdZbQh8XbGMl-1" vertex="1">
                    <mxGeometry x="-1000" y="360" width="210" height="60" as="geometry"/>
                </mxCell>
                <mxCell id="pACtPd74VW9xICia-oxW-8" value="&lt;b&gt;Storage&lt;/b&gt;" style="rounded=0;whiteSpace=wrap;html=1;shadow=0;labelBackgroundColor=none;sketch=0;fontSize=13;verticalAlign=middle;fillStyle=zigzag;fillColor=#f99007;opacity=20;" parent="-sU8y2Q3AdZbQh8XbGMl-1" vertex="1">
                    <mxGeometry x="-1000" y="624" width="210" height="62.87" as="geometry"/>
                </mxCell>
                <mxCell id="pACtPd74VW9xICia-oxW-9" value="&lt;b&gt;Credentials&lt;/b&gt;" style="rounded=0;whiteSpace=wrap;html=1;shadow=0;labelBackgroundColor=none;sketch=0;fontSize=13;verticalAlign=middle;fillStyle=zigzag;fillColor=#F99007;opacity=20;" parent="-sU8y2Q3AdZbQh8XbGMl-1" vertex="1">
                    <mxGeometry x="-1000" y="534" width="210" height="65.75" as="geometry"/>
                </mxCell>
                <mxCell id="pACtPd74VW9xICia-oxW-10" value="&lt;b&gt;Identity&lt;/b&gt;" style="rounded=0;whiteSpace=wrap;html=1;shadow=0;labelBackgroundColor=none;sketch=0;fontSize=13;verticalAlign=middle;fillStyle=zigzag;strokeColor=#F99007;fillColor=#f99007;opacity=20;" parent="-sU8y2Q3AdZbQh8XbGMl-1" vertex="1">
                    <mxGeometry x="-1000" y="711" width="210" height="65.75" as="geometry"/>
                </mxCell>
                <mxCell id="pACtPd74VW9xICia-oxW-11" value="&lt;b&gt;Network&lt;/b&gt;" style="rounded=0;whiteSpace=wrap;html=1;shadow=0;labelBackgroundColor=none;sketch=0;fontSize=13;verticalAlign=middle;fillStyle=zigzag;strokeColor=#13344c;fillColor=#f99007;opacity=20;" parent="-sU8y2Q3AdZbQh8XbGMl-1" vertex="1">
                    <mxGeometry x="-1000" y="800" width="210" height="64.25" as="geometry"/>
                </mxCell>
                <mxCell id="pACtPd74VW9xICia-oxW-12" value="&lt;b&gt;Databricks&lt;/b&gt;" style="whiteSpace=wrap;html=1;shadow=0;labelBackgroundColor=none;sketch=0;fontSize=13;verticalAlign=middle;opacity=30;fillColor=#5fc0c5;" parent="-sU8y2Q3AdZbQh8XbGMl-1" vertex="1">
                    <mxGeometry x="-300" y="360" width="210" height="60" as="geometry"/>
                </mxCell>
                <mxCell id="pACtPd74VW9xICia-oxW-13" value="&lt;b&gt;Azure Data Factory&lt;/b&gt;" style="whiteSpace=wrap;html=1;shadow=0;labelBackgroundColor=none;sketch=0;fontSize=13;verticalAlign=middle;fillStyle=zigzag;fillColor=#5FC0C5;opacity=30;" parent="-sU8y2Q3AdZbQh8XbGMl-1" vertex="1">
                    <mxGeometry x="-300" y="448" width="210" height="60" as="geometry"/>
                </mxCell>
                <mxCell id="pACtPd74VW9xICia-oxW-14" value="&lt;b&gt;Credentials&lt;/b&gt;" style="rounded=0;whiteSpace=wrap;html=1;shadow=0;labelBackgroundColor=none;sketch=0;fontSize=13;verticalAlign=middle;fillStyle=zigzag;fillColor=#F99007;opacity=20;" parent="-sU8y2Q3AdZbQh8XbGMl-1" vertex="1">
                    <mxGeometry x="-300" y="534" width="210" height="65.75" as="geometry"/>
                </mxCell>
                <mxCell id="pACtPd74VW9xICia-oxW-15" value="&lt;b&gt;Storage&lt;/b&gt;" style="rounded=0;whiteSpace=wrap;html=1;shadow=0;labelBackgroundColor=none;sketch=0;fontSize=13;verticalAlign=middle;fillStyle=zigzag;fillColor=#f99007;opacity=20;" parent="-sU8y2Q3AdZbQh8XbGMl-1" vertex="1">
                    <mxGeometry x="-300" y="624" width="210" height="62.87" as="geometry"/>
                </mxCell>
                <mxCell id="pACtPd74VW9xICia-oxW-16" value="&lt;b&gt;Identity&lt;/b&gt;" style="rounded=0;whiteSpace=wrap;html=1;shadow=0;labelBackgroundColor=none;sketch=0;fontSize=13;verticalAlign=middle;fillStyle=zigzag;strokeColor=#F99007;fillColor=#f99007;opacity=20;" parent="-sU8y2Q3AdZbQh8XbGMl-1" vertex="1">
                    <mxGeometry x="-300" y="711" width="210" height="65.75" as="geometry"/>
                </mxCell>
                <mxCell id="pACtPd74VW9xICia-oxW-17" value="&lt;b&gt;Network&lt;/b&gt;" style="rounded=0;whiteSpace=wrap;html=1;shadow=0;labelBackgroundColor=none;sketch=0;fontSize=13;verticalAlign=middle;fillStyle=zigzag;strokeColor=#13344c;fillColor=#f99007;opacity=20;" parent="-sU8y2Q3AdZbQh8XbGMl-1" vertex="1">
                    <mxGeometry x="-300" y="800" width="210" height="64.25" as="geometry"/>
                </mxCell>
                <mxCell id="pACtPd74VW9xICia-oxW-18" value="&lt;b&gt;Network&lt;/b&gt;" style="rounded=0;whiteSpace=wrap;html=1;shadow=0;labelBackgroundColor=none;sketch=0;fontSize=13;verticalAlign=middle;fillStyle=zigzag;strokeColor=#13344c;fillColor=#f99007;opacity=20;" parent="-sU8y2Q3AdZbQh8XbGMl-1" vertex="1">
                    <mxGeometry x="400" y="800" width="210" height="64.25" as="geometry"/>
                </mxCell>
                <mxCell id="pACtPd74VW9xICia-oxW-19" value="&lt;b&gt;Identity&lt;/b&gt;" style="rounded=0;whiteSpace=wrap;html=1;shadow=0;labelBackgroundColor=none;sketch=0;fontSize=13;verticalAlign=middle;fillStyle=zigzag;strokeColor=#F99007;fillColor=#f99007;opacity=20;" parent="-sU8y2Q3AdZbQh8XbGMl-1" vertex="1">
                    <mxGeometry x="400" y="711" width="210" height="65.75" as="geometry"/>
                </mxCell>
                <mxCell id="pACtPd74VW9xICia-oxW-20" value="&lt;b&gt;Storage&lt;/b&gt;" style="rounded=0;whiteSpace=wrap;html=1;shadow=0;labelBackgroundColor=none;sketch=0;fontSize=13;verticalAlign=middle;fillStyle=zigzag;fillColor=#f99007;opacity=20;" parent="-sU8y2Q3AdZbQh8XbGMl-1" vertex="1">
                    <mxGeometry x="400" y="624" width="210" height="62.87" as="geometry"/>
                </mxCell>
                <mxCell id="pACtPd74VW9xICia-oxW-21" value="&lt;b&gt;Credentials&lt;/b&gt;" style="rounded=0;whiteSpace=wrap;html=1;shadow=0;labelBackgroundColor=none;sketch=0;fontSize=13;verticalAlign=middle;fillStyle=zigzag;fillColor=#F99007;opacity=20;" parent="-sU8y2Q3AdZbQh8XbGMl-1" vertex="1">
                    <mxGeometry x="400" y="534" width="210" height="65.75" as="geometry"/>
                </mxCell>
                <mxCell id="pACtPd74VW9xICia-oxW-22" value="&lt;b&gt;Azure Data Factory&lt;/b&gt;" style="whiteSpace=wrap;html=1;shadow=0;labelBackgroundColor=none;sketch=0;fontSize=13;verticalAlign=middle;fillStyle=zigzag;fillColor=#5FC0C5;opacity=30;" parent="-sU8y2Q3AdZbQh8XbGMl-1" vertex="1">
                    <mxGeometry x="400" y="448" width="210" height="60" as="geometry"/>
                </mxCell>
                <mxCell id="pACtPd74VW9xICia-oxW-23" value="&lt;b&gt;Databricks&lt;/b&gt;" style="whiteSpace=wrap;html=1;shadow=0;labelBackgroundColor=none;sketch=0;fontSize=13;verticalAlign=middle;opacity=30;fillColor=#5fc0c5;" parent="-sU8y2Q3AdZbQh8XbGMl-1" vertex="1">
                    <mxGeometry x="400" y="360" width="210" height="60" as="geometry"/>
                </mxCell>
                <mxCell id="pACtPd74VW9xICia-oxW-25" style="edgeStyle=orthogonalEdgeStyle;rounded=0;orthogonalLoop=1;jettySize=auto;html=1;fontSize=18;strokeWidth=5;" parent="-sU8y2Q3AdZbQh8XbGMl-1" edge="1">
                    <mxGeometry relative="1" as="geometry">
                        <mxPoint x="50.000000000000455" y="594.25" as="sourcePoint"/>
                        <mxPoint x="270" y="594.25" as="targetPoint"/>
                    </mxGeometry>
                </mxCell>
                <mxCell id="pACtPd74VW9xICia-oxW-27" value="&lt;b&gt;Azure DevOps&lt;/b&gt;" style="rounded=0;whiteSpace=wrap;html=1;shadow=0;labelBackgroundColor=none;sketch=0;fontSize=13;verticalAlign=middle;fillStyle=zigzag;strokeColor=#13344c;fillColor=#f99007;opacity=20;" parent="-sU8y2Q3AdZbQh8XbGMl-1" vertex="1">
                    <mxGeometry x="-960" y="1130.75" width="1530" height="64.25" as="geometry"/>
                </mxCell>
                <mxCell id="pACtPd74VW9xICia-oxW-32" value="&lt;b&gt;Databricks Repo&lt;/b&gt;" style="whiteSpace=wrap;html=1;shadow=0;labelBackgroundColor=none;sketch=0;fontSize=13;verticalAlign=middle;fillStyle=zigzag;fillColor=#5FC0C5;opacity=30;" parent="-sU8y2Q3AdZbQh8XbGMl-1" vertex="1">
                    <mxGeometry x="-730" y="1035" width="210" height="62.25" as="geometry"/>
                </mxCell>
                <mxCell id="pACtPd74VW9xICia-oxW-33" value="" style="aspect=fixed;html=1;points=[];align=center;image;fontSize=12;image=img/lib/mscae/Azure_Repos.svg;fillColor=none;" parent="-sU8y2Q3AdZbQh8XbGMl-1" vertex="1">
                    <mxGeometry x="-720" y="1050.6299999999999" width="27.9" height="31" as="geometry"/>
                </mxCell>
                <mxCell id="pACtPd74VW9xICia-oxW-41" value="" style="group" parent="-sU8y2Q3AdZbQh8XbGMl-1" vertex="1" connectable="0">
                    <mxGeometry x="-290" y="1035" width="210" height="62.25" as="geometry"/>
                </mxCell>
                <mxCell id="LqsbPOSO8fhI4KLYFztt-60" value="&lt;b&gt;DBT Repo&lt;/b&gt;" style="whiteSpace=wrap;html=1;shadow=0;labelBackgroundColor=none;sketch=0;fontSize=13;verticalAlign=middle;fillStyle=zigzag;fillColor=#5FC0C5;opacity=30;" parent="pACtPd74VW9xICia-oxW-41" vertex="1">
                    <mxGeometry width="210" height="62.25" as="geometry"/>
                </mxCell>
                <mxCell id="pACtPd74VW9xICia-oxW-34" value="" style="aspect=fixed;html=1;points=[];align=center;image;fontSize=12;image=img/lib/mscae/Azure_Repos.svg;fillColor=none;" parent="pACtPd74VW9xICia-oxW-41" vertex="1">
                    <mxGeometry x="20" y="15.61999999999989" width="27.9" height="31" as="geometry"/>
                </mxCell>
                <mxCell id="pACtPd74VW9xICia-oxW-43" value="" style="group" parent="-sU8y2Q3AdZbQh8XbGMl-1" vertex="1" connectable="0">
                    <mxGeometry x="150" y="1033.5" width="210" height="62.25" as="geometry"/>
                </mxCell>
                <mxCell id="pACtPd74VW9xICia-oxW-40" value="&lt;b&gt;Data Factory Repo&lt;/b&gt;" style="whiteSpace=wrap;html=1;shadow=0;labelBackgroundColor=none;sketch=0;fontSize=13;verticalAlign=middle;fillStyle=zigzag;fillColor=#5FC0C5;opacity=30;" parent="pACtPd74VW9xICia-oxW-43" vertex="1">
                    <mxGeometry width="210" height="62.25" as="geometry"/>
                </mxCell>
                <mxCell id="pACtPd74VW9xICia-oxW-42" value="" style="aspect=fixed;html=1;points=[];align=center;image;fontSize=12;image=img/lib/mscae/Azure_Repos.svg;fillColor=none;" parent="pACtPd74VW9xICia-oxW-43" vertex="1">
                    <mxGeometry x="10" y="17.11999999999989" width="27.9" height="31" as="geometry"/>
                </mxCell>
            </root>
        </mxGraphModel>
    </diagram>
</mxfile>